<?xml version="1.0" encoding="UTF-8" standalone="no"?>
<!-- Generator: Adobe Illustrator 14.0.0, SVG Export Plug-In . SVG Version: 6.00 Build 43363)  -->

<svg
   xmlns:dc="http://purl.org/dc/elements/1.1/"
   xmlns:cc="http://creativecommons.org/ns#"
   xmlns:rdf="http://www.w3.org/1999/02/22-rdf-syntax-ns#"
   xmlns:svg="http://www.w3.org/2000/svg"
   xmlns="http://www.w3.org/2000/svg"
   xmlns:sodipodi="http://sodipodi.sourceforge.net/DTD/sodipodi-0.dtd"
   xmlns:inkscape="http://www.inkscape.org/namespaces/inkscape"
   version="1.2"
   id="Layer_1"
   x="0px"
   y="0px"
   width="1920"
   height="1080"
   viewBox="0 0 1920.0001 1080"
   xml:space="preserve"
   inkscape:version="0.91 r13725"
   sodipodi:docname="fanart.svg"><metadata
     id="metadata28"><rdf:RDF><cc:Work
         rdf:about=""><dc:format>image/svg+xml</dc:format><dc:type
           rdf:resource="http://purl.org/dc/dcmitype/StillImage" /><dc:title></dc:title></cc:Work></rdf:RDF></metadata><defs
     id="defs26" /><sodipodi:namedview
     pagecolor="#ffffff"
     bordercolor="#666666"
     borderopacity="1"
     objecttolerance="10"
     gridtolerance="10"
     guidetolerance="10"
     inkscape:pageopacity="1"
     inkscape:pageshadow="2"
     inkscape:window-width="1600"
     inkscape:window-height="836"
     id="namedview24"
     showgrid="false"
     inkscape:zoom="0.37292795"
     inkscape:cx="160.27299"
     inkscape:cy="316.41501"
     inkscape:window-x="0"
     inkscape:window-y="27"
     inkscape:window-maximized="1"
     inkscape:current-layer="Layer_1" /><g
     id="g4156"
     transform="matrix(1.4,0,0,1.4,738.04896,-528.0946)"><path
       style="fill:#001c58"
       inkscape:connector-curvature="0"
       d="m 92.196,870.54104 c -1.71,-0.429 -3.187,-1.489 -4.327,-3.08 -5.782,8.919 -8.22,16.894 -6.094,24.051 8.895,30.032 35.392,52.212 67.126,55.166 -30.329,-9.212 -52.775,-40.815 -56.705,-76.137 m -6.21,-17.749 c -1.911,-1.361 -3.547,-2.637 -4.711,-3.748 -2.028,7.471 -2.964,15.375 -2.632,23.52 0.065,1.646 0.183,3.275 0.346,4.89 1.174,-4.813 3.485,-9.841 6.798,-14.969 -0.641,-3.001 -0.54,-6.414 0.199,-9.693 z m 1.495,-4.584 c 0.801,-1.82 1.805,-3.5 3,-4.916 0.961,-1.133 1.985,-2.033 3.072,-2.701 2.886,-13.451 8.914,-25.432 17.725,-34.488 -13.156,9.354 -23.239,22.689 -28.54,38.165 0.704,0.963 2.575,2.419 4.743,3.94 z m 113.81,69.05 c -6.568,-0.729 -15.354,-2.465 -19.189,-3.793 -4.282,-1.48 -8.092,-5.058 -10.185,-9.577 -0.867,-1.868 -1.651,-4.353 -1.776,-7.365 -0.071,-1.801 0.101,-3.786 0.628,-5.936 -24.078,-7.344 -49.582,-17.542 -67.337,-27.023 -0.625,1.144 -1.339,2.207 -2.141,3.155 -1.335,1.58 -2.835,2.726 -4.379,3.38 1.667,14.773 6.797,29.249 14.966,41.862 10.836,16.73 25.594,28.196 41.536,31.806 5.652,1.273 13.04,2.863 19.649,1.399 24.505,-5.427 44.48,-22.377 54.244,-44.674 -1.145,0.204 -2.43,0.32 -3.811,0.368 -5.59,16.359 -17.349,16.935 -22.205,16.398 z m 32.425,-51.006 c -0.349,-8.615 -2.086,-16.842 -4.993,-24.476 -3.574,-9.361 -15.52,-16 -31.255,-19.564 -29.09,-6.576 -67.301,4.287 -91.616,24.744 0.934,3.73 0.657,8.181 -0.597,12.24 17.52,9.42 43,19.616 67.039,26.934 5.658,-12.992 16.49,-15.47 24.938,-13.358 6.052,1.51 9.942,2.302 12.782,2.873 l 3.125,0.66 c 4.016,0.939 7.539,3.607 9.651,7.325 1.497,2.626 2.872,6.779 1.935,12.5 2.953,-0.173 4.383,-0.668 4.714,-1.059 3.155,-8.994 4.691,-18.723 4.277,-28.819 z m -13.785,29.877 c 0.967,-4.793 -0.08,-8.129 -1.244,-10.168 -1.46,-2.575 -3.879,-4.42 -6.616,-5.061 l -2.993,-0.63 c -2.724,-0.55 -6.832,-1.386 -12.988,-2.922 -8.246,-2.06 -15.32,1.717 -19.228,10.137 4.017,1.168 7.973,2.247 11.828,3.224 0.621,-2.999 0.754,-5.079 0.754,-5.116 0.08,-1.299 1.196,-2.292 2.497,-2.216 1.3,0.076 2.293,1.188 2.215,2.493 -0.008,0.169 -0.16,2.555 -0.876,5.959 0.763,0.179 1.528,0.359 2.278,0.527 0.773,0.177 1.535,0.346 2.281,0.503 0.672,-3.317 1.105,-6.138 1.117,-6.194 0.195,-1.288 1.399,-2.172 2.684,-1.977 1.293,0.192 2.177,1.396 1.985,2.686 -0.034,0.227 -0.472,3.051 -1.164,6.436 1.582,0.309 3.082,0.578 4.505,0.821 0.523,-2.862 0.651,-5.138 0.651,-5.181 0.062,-1.3 1.173,-2.304 2.474,-2.239 1.304,0.062 2.309,1.168 2.242,2.466 -0.01,0.194 -0.137,2.584 -0.697,5.66 3.27,0.444 6.016,0.687 8.295,0.792 z m -43.732,5.77 c 1.844,3.98 5.055,6.282 7.447,7.105 3.107,1.078 11.33,2.805 18.16,3.554 7.492,0.829 13.349,-3.339 16.688,-11.762 -2.507,-0.144 -5.191,-0.438 -7.969,-0.824 -0.521,1.695 -1.184,3.386 -2.039,4.887 -0.644,1.133 -2.082,1.523 -3.215,0.883 -1.133,-0.644 -1.528,-2.086 -0.883,-3.223 0.566,-0.995 1.035,-2.125 1.423,-3.289 -1.465,-0.25 -2.939,-0.527 -4.398,-0.809 -0.501,1.957 -1.074,3.816 -1.676,5.207 -0.521,1.194 -1.915,1.737 -3.11,1.219 -1.196,-0.52 -1.738,-1.911 -1.219,-3.105 0.487,-1.118 0.953,-2.634 1.383,-4.277 -0.766,-0.168 -1.523,-0.336 -2.273,-0.505 -0.793,-0.178 -1.605,-0.37 -2.415,-0.565 -0.425,1.368 -0.925,2.79 -1.534,4.23 -0.504,1.2 -1.896,1.762 -3.095,1.256 -1.198,-0.505 -1.765,-1.892 -1.257,-3.09 0.508,-1.188 0.93,-2.372 1.289,-3.512 -3.977,-1.009 -8.063,-2.13 -12.206,-3.339 -1,4.346 -0.133,7.744 0.899,9.959 z m -77.748,-58.808 c -1.046,-0.191 -3.122,-0.176 -5.196,2.079 -3.285,3.561 -4.827,8.386 -4.59,14.33 l 0,0 c 0.066,1.516 0.278,2.365 0.707,3.587 0.766,2.16 2.606,3.588 3.95,3.832 1.598,0.293 3.402,-0.642 5.086,-2.635 3.679,-4.365 5.266,-12.369 3.461,-17.477 -0.75,-2.128 -1.961,-3.449 -3.418,-3.716 z"
       id="path8066" /><path
       style="fill:#ffffff"
       inkscape:connector-curvature="0"
       d="m 122.556,455.25004 c -30.403,0 -37.609,15.588 -37.609,15.588 0,0 35.079,-2.535 35.079,32.11 0,15.592 -8.485,26.16 -17.466,37.344 -10.434,12.989 -22.254,27.712 -22.254,52.41 0,40.884 26.266,60.064 49.438,76.984 20.189,14.746 39.256,28.669 39.256,54.887 0,26.363 -11.563,46.801 -16.841,52.076 -8.852,8.852 -16.828,10.462 -23.231,11.757 -6.578,1.327 -12.793,2.604 -14.098,12.052 -24.341,14.619 -39.088,40.657 -39.088,68.906 0,1.102 0.023,2.208 0.067,3.315 0.875,21.47 10.058,41.313 25.856,55.873 15.797,14.563 36.321,22.098 57.787,21.222 21.468,-0.874 41.309,-10.059 55.872,-25.852 14.563,-15.798 22.1,-36.323 21.22,-57.786 -1.329,-32.773 -22.126,-61.178 -52.979,-72.361 l 0.119,0.044 c -0.02,-0.009 -0.422,-0.17 -0.422,-0.17 -0.004,-0.004 -0.727,-0.255 -0.727,-0.255 -3.902,-1.347 -8.329,-2.877 -8.329,-12.913 0,-9.725 4.415,-10.531 13.2,-12.145 5.223,-0.959 11.613,-2.131 17.88,-5.959 11.153,-6.808 13.247,-15.021 11.216,-17.048 -2.764,-2.768 -5.811,3.045 -17.037,6.427 -4.047,1.222 -8.12,1.932 -10.871,1.932 -2.289,0 -3.997,-0.192 -5.25,-0.42 5.896,-11.046 12.501,-20.089 12.574,-20.184 l 1.439,-1.958 -1.721,-1.72 c -2.281,-2.28 -3.594,-7.024 -3.594,-13.385 0,-7.849 1.996,-18.155 6.629,-29.345 5.48,-13.223 27.232,-56.377 77.123,-56.377 l 2.833,0 0,-2.832 c 0,-17.836 -1.63,-34.241 -4.841,-48.757 l -0.625,-2.82 c 0,0 -4.844,1.375 -8.879,2.275 -0.48,0.106 -4.254,1.033 -4.426,0.237 -0.151,-0.704 2.763,-2.167 3.77,-2.673 3.789,-1.884 8.512,-3.868 8.512,-3.868 l -0.652,-2.27 c -3.559,-12.42 -7.14,-18.355 -7.293,-18.604 l -1.156,-1.892 -2.107,0.667 c -41.547,13.088 -50.431,40.658 -55.739,57.127 -2.583,8.003 -4.181,12.531 -7.07,12.531 -8.575,0 -15.669,-7.092 -18.001,-9.423 -25.902,-25.905 -23.919,-44.581 -20.911,-72.854 1.065,-9.977 2.269,-21.283 2.269,-34.195 -0.003,-32.542 -12.369,-47.698 -38.922,-47.698"
       id="path8068" /><path
       style="fill:#001c58"
       inkscape:connector-curvature="0"
       d="m 171.832,724.57204 c 0,26.256 -11.199,47.608 -17.669,54.077 -20.051,20.053 -36.589,5.45 -36.769,25.568 -9.099,8.24 -15.645,20.768 -18.857,35.077 0.2,0.02 0.398,0.048 0.594,0.085 1.883,0.343 3.5,1.419 4.734,3.117 25.467,-20.755 64.677,-31.668 94.647,-24.891 9.528,2.154 17.61,5.672 23.731,11.054 -9.203,-14.886 -23.273,-26.374 -39.904,-32.336 -3.947,-1.415 -10.965,-3.036 -10.965,-15.845 0,-23.904 26.154,-5.318 43.385,-31.355 0.844,-1.286 -0.37,-2.408 -1.383,-1.397 -5.211,5.208 -18.012,8.792 -24.782,8.792 -6.778,0 -9.327,-1.544 -9.327,-1.544 6.398,-12.732 14.367,-23.569 14.367,-23.569 -15.996,-15.996 10.926,-103.942 82.162,-103.942 0,-20.4 -2.155,-36.313 -4.774,-48.146 -1.694,0.413 -15.112,3.577 -15.727,0.755 -0.543,-2.5 9.884,-7.92 13.474,-9.703 -3.501,-12.194 -6.988,-17.909 -6.988,-17.909 -61.057,19.237 -48.786,69.788 -63.66,69.788 -9.682,0 -17.286,-7.536 -20.002,-10.252 -36.469,-36.463 -19.472,-60.596 -19.472,-109.052 0,-32.642 -12.677,-44.867 -36.088,-44.867 -23.41,0 -31.774,10.137 -31.774,10.137 0,0 32.076,1.039 32.076,34.73 0,35.272 -39.721,45.008 -39.721,89.753 -0.002,74.489 88.692,73.09 88.692,131.875 m -42.283,-221.624 c 0,-4.324 -0.465,-8.229 -1.309,-11.753 0,0 6.981,-0.365 6.981,-8.861 0,-7.004 -4.672,-11.779 -5.925,-11.779 -1.011,0 -1.262,1.073 -3.45,1.073 -5.332,0 -5.722,-6.813 -5.722,-6.813 0.789,-0.027 1.6,-0.039 2.432,-0.039 15.266,0 29.396,4.623 29.396,38.174 0,12.407 -1.176,23.448 -2.211,33.188 -1.027,9.62 -1.976,18.568 -1.703,27.306 0,0 -26.584,-3.133 -26.584,-23.133 0,-12.988 8.095,-16.148 8.095,-37.363 z m -37.353,367.593 c -1.71,-0.429 -3.187,-1.489 -4.327,-3.08 -5.782,8.919 -8.22,16.894 -6.094,24.051 8.895,30.032 35.392,52.212 67.126,55.166 -30.329,-9.212 -52.775,-40.815 -56.705,-76.137 z m -6.21,-17.749 c -1.911,-1.361 -3.547,-2.637 -4.711,-3.748 -2.028,7.471 -2.964,15.375 -2.632,23.52 0.065,1.646 0.183,3.275 0.346,4.89 1.174,-4.813 3.485,-9.841 6.798,-14.969 -0.641,-3.001 -0.54,-6.414 0.199,-9.693 z m 1.495,-4.584 c 0.801,-1.82 1.805,-3.5 3,-4.916 0.961,-1.133 1.985,-2.033 3.072,-2.701 2.886,-13.451 8.914,-25.432 17.725,-34.488 -13.156,9.354 -23.239,22.689 -28.54,38.165 0.704,0.963 2.575,2.419 4.743,3.94 z m 113.81,69.05 c -6.568,-0.729 -15.354,-2.465 -19.189,-3.793 -4.282,-1.48 -8.092,-5.058 -10.185,-9.577 -0.867,-1.868 -1.651,-4.353 -1.776,-7.365 -0.071,-1.801 0.101,-3.786 0.628,-5.936 -24.078,-7.344 -49.582,-17.542 -67.337,-27.023 -0.625,1.144 -1.339,2.207 -2.141,3.155 -1.335,1.58 -2.835,2.726 -4.379,3.38 1.667,14.773 6.797,29.249 14.966,41.862 10.836,16.73 25.594,28.196 41.536,31.806 5.652,1.273 13.04,2.863 19.649,1.399 24.505,-5.427 44.48,-22.377 54.244,-44.674 -1.145,0.204 -2.43,0.32 -3.811,0.368 -5.59,16.359 -17.349,16.935 -22.205,16.398 z m 27.432,-75.482 c -3.574,-9.361 -15.52,-16 -31.255,-19.564 -29.09,-6.576 -67.301,4.287 -91.616,24.744 0.934,3.73 0.657,8.181 -0.597,12.24 17.52,9.42 43,19.616 67.039,26.934 5.658,-12.992 16.49,-15.47 24.938,-13.358 6.052,1.51 9.942,2.302 12.782,2.873 l 3.125,0.66 c 4.016,0.939 7.539,3.607 9.651,7.325 1.497,2.626 2.872,6.779 1.935,12.5 2.953,-0.173 4.383,-0.668 4.714,-1.059 3.152,-8.994 4.688,-18.723 4.274,-28.818 -0.345,-8.616 -2.083,-16.843 -4.99,-24.477 z m -52.524,60.123 c 1.844,3.98 5.055,6.282 7.447,7.105 3.107,1.078 11.33,2.805 18.16,3.554 7.492,0.829 13.349,-3.339 16.688,-11.762 -2.507,-0.144 -5.191,-0.438 -7.969,-0.824 -0.521,1.695 -1.184,3.386 -2.039,4.887 -0.644,1.133 -2.082,1.523 -3.215,0.883 -1.133,-0.644 -1.528,-2.086 -0.883,-3.223 0.566,-0.995 1.035,-2.125 1.423,-3.289 -1.465,-0.25 -2.939,-0.527 -4.398,-0.809 -0.501,1.957 -1.074,3.816 -1.676,5.207 -0.521,1.194 -1.915,1.737 -3.11,1.219 -1.196,-0.52 -1.738,-1.911 -1.219,-3.105 0.487,-1.118 0.953,-2.634 1.383,-4.277 -0.766,-0.168 -1.523,-0.336 -2.273,-0.505 -0.793,-0.178 -1.605,-0.37 -2.415,-0.565 -0.425,1.368 -0.925,2.79 -1.534,4.23 -0.504,1.2 -1.896,1.762 -3.095,1.256 -1.198,-0.505 -1.765,-1.892 -1.257,-3.09 0.508,-1.188 0.93,-2.372 1.289,-3.512 -3.977,-1.009 -8.063,-2.13 -12.206,-3.339 -1,4.346 -0.133,7.744 0.899,9.959 z m 43.732,-5.77 c 0.967,-4.793 -0.08,-8.129 -1.244,-10.168 -1.46,-2.575 -3.879,-4.42 -6.616,-5.061 l -2.993,-0.63 c -2.724,-0.55 -6.832,-1.386 -12.988,-2.922 -8.246,-2.06 -15.32,1.717 -19.228,10.137 4.017,1.168 7.973,2.247 11.828,3.224 0.621,-2.999 0.754,-5.079 0.754,-5.116 0.08,-1.299 1.196,-2.292 2.497,-2.216 1.3,0.076 2.293,1.188 2.215,2.493 -0.008,0.169 -0.16,2.555 -0.876,5.959 0.763,0.179 1.528,0.359 2.278,0.527 0.773,0.177 1.535,0.346 2.281,0.503 0.672,-3.317 1.105,-6.138 1.117,-6.194 0.195,-1.288 1.399,-2.172 2.684,-1.977 1.293,0.192 2.177,1.396 1.985,2.686 -0.034,0.227 -0.472,3.051 -1.164,6.436 1.582,0.309 3.082,0.578 4.505,0.821 0.523,-2.862 0.651,-5.138 0.651,-5.181 0.062,-1.3 1.173,-2.304 2.474,-2.239 1.304,0.062 2.309,1.168 2.242,2.466 -0.01,0.194 -0.137,2.584 -0.697,5.66 3.27,0.444 6.016,0.687 8.295,0.792 z m -121.48,-53.038 c -1.046,-0.191 -3.122,-0.176 -5.196,2.079 -3.285,3.561 -4.827,8.386 -4.59,14.33 l 0,0 c 0.066,1.516 0.278,2.365 0.707,3.587 0.766,2.16 2.606,3.588 3.95,3.832 1.598,0.293 3.402,-0.642 5.086,-2.635 3.679,-4.365 5.266,-12.369 3.461,-17.477 -0.75,-2.128 -1.961,-3.449 -3.418,-3.716 z"
       id="path8070" /><path
       style="fill:#001c58"
       inkscape:connector-curvature="0"
       d="m 37.411,937.30504 c 5.953,3.927 12.257,7.458 12.257,7.458 l -2.207,5.719 c -0.824,-3.465 -4.261,-5.345 -8.696,-8.09 l -14.52,20.996 c -1.773,2.531 -5.23,8.074 -5.509,10.234 0,0 -2.383,-1.513 -4.558,-3.133 -2.273,-1.696 -4.434,-3.267 -4.434,-3.267 2.164,-0.526 5.901,-6.039 8.155,-9.095 l 14.126,-20.155 c -5.291,-4.091 -7.356,-4.892 -11.095,-5.087 l 5.028,-3.77 c 0.003,0.003 4.835,3.827 11.453,8.19"
       id="path8072" /><path
       style="fill:#001c58"
       inkscape:connector-curvature="0"
       d="m 267.498,1008.428 0.438,0.481 c -0.41,-0.022 -0.751,0.19 -1.191,0.438 l 1.274,2.449 c 0.249,0.453 0.601,1.142 0.831,1.192 0,0 -0.272,0.155 -0.598,0.32 -0.285,0.14 -0.555,0.25 -0.555,0.25 0.004,-0.305 -0.095,-0.547 -0.434,-1.243 l -1.334,-2.57 c -0.447,0.226 -0.938,0.448 -1.068,0.812 l -0.113,-0.711 c 0,0 0.658,-0.319 1.37,-0.687 0.826,-0.426 1.38,-0.731 1.38,-0.731"
       id="path8074" /><path
       style="fill:#001c58"
       inkscape:connector-curvature="0"
       d="m 46.809,989.38604 c -10.086,-4.813 -11.426,-15.927 -6.46,-26.329 4.988,-10.445 14.496,-16.325 24.536,-11.527 10.036,4.792 11.45,15.879 6.458,26.328 -4.967,10.402 -14.449,16.343 -24.534,11.528 m 16.632,-34.841 c -6.449,-3.078 -11.52,4.206 -15.344,12.215 -3.824,8.008 -6.325,16.586 0.125,19.665 6.45,3.075 11.547,-4.259 15.372,-12.267 3.824,-8.009 6.297,-16.536 -0.153,-19.613 z"
       id="path8076" /><path
       style="fill:#001c58"
       inkscape:connector-curvature="0"
       d="m 91.942,962.27204 c 6.821,1.926 12.372,3.215 12.372,3.215 l -0.591,6.105 c -1.828,-2.641 -2.667,-3.286 -8.489,-4.77 l -7.059,23.733 c -0.566,2.173 -3.383,10.39196 -2.48,11.93796 0,0 -1.96,-0.418 -5.125,-1.296 -3.558,-0.986 -5.23,-1.65296 -5.23,-1.65296 1.825,-1.2 4.121,-8.226 4.872,-11.082 l 7.094,-23.892 c -6.032,-2.012 -7.434,-2.152 -10.316,-0.813 l 3.496,-5.206 c -0.001,0.002 3.937,1.591 11.456,3.721"
       id="path8078" /><path
       style="fill:#001c58"
       inkscape:connector-curvature="0"
       d="m 120.079,968.57604 c 6.723,1.016 13.056,1.59 13.056,1.59 l 0.254,6.126 c -2.512,-2.234 -3.458,-2.958 -10.095,-3.794 l -3.844,24.373 c -0.27,2.233 -1.699,10.71096 -0.594,12.11696 0,0 -2.328,-0.259 -5.543,-0.708 -3.215,-0.457 -5.19,-0.909 -5.19,-0.909 1.57,-1.227 2.875,-9.25396 3.148,-11.48896 l 3.938,-24.676 c -5.751,-1.148 -6.933,-0.707 -9.695,0.895 l 2.504,-5.796 c 0,-10e-4 5.371,1.261 12.061,2.271"
       id="path8080" /><path
       style="fill:#001c58"
       inkscape:connector-curvature="0"
       d="M 145.006,991.74904 144.5,1008.128 c 8.588,0.113 14.468,-0.43 17.085,-4.156 l -1.313,7.442 c 0,0 -4.757,0.096 -11.723,0 -7.655,-0.11 -13.664,-0.609 -13.664,-0.609 1.274,-1.262 1.59,-9.244 1.605,-11.48696 l 0.7,-16.076 c 0.031,-4.28 0.421,-11.198 -1.016,-12.652 6.222,0.43 5.43,0.422 11.144,0.645 7.482,0.297 11.719,0.074 11.719,0.074 l 0.941,6.145 c -2.921,-2.438 -7.3,-2.724 -14.449,-2.766 l -0.394,13.747 10.98,0.063 c 0.989,0.011 1.051,0.562 1.048,1.663 -0.012,1.086 -0.027,1.664 -1.07,1.653 l -11.087,-0.065"
       id="path8082" /><path
       style="fill:#001c58"
       inkscape:connector-curvature="0"
       d="m 192.964,996.67904 c 0.633,5.95996 1.262,10.24096 2.621,11.02296 -0.34,0.616 -1.417,1.425 -2.847,1.577 -1.722,0.184 -3.024,-0.664 -4.22,-2.046 l -19.469,-22.33396 0.732,14.209 c 0.236,2.23296 0.493,10.69796 1.883,11.82796 l -6.487,0.295 c 1.129,-1.395 0.829,-9.46 0.589,-11.69896 l -0.916,-16.034 c -0.238,-2.235 -0.656,-11.103 -2.051,-12.224 l 5.949,-0.215 19.953,23.699 -1.66,-13.636 c -0.238,-2.242 -1.452,-10.367 -2.795,-11.497 0,0 0.717,-0.069 3.139,-0.398 2.417,-0.328 3.297,-0.504 3.297,-0.504 -1.121,1.398 0.18,9.734 0.421,11.97 l 1.861,15.986"
       id="path8084" /><path
       style="fill:#001c58"
       inkscape:connector-curvature="0"
       d="m 229.544,988.23004 c 0.691,2.773 2.063,9.894 4.098,11.288 0,0 -3.079,0.89196 -4.962,1.46996 -1.675,0.515 -5.366,1.473 -5.366,1.473 0.87,-1.539 -1.07,-10.08596 -1.606,-12.21996 l -1.851,-7.437 -12.371,3.034 1.406,7.563 c 0.406,2.445 1.695,10.67296 3.363,11.67696 0,0 -1.73,0.358 -5.336,1.098 -3.02,0.621 -5.123,0.953 -5.123,0.953 0.927,-1.539 -0.315,-9.16896 -0.699,-11.60296 l -2.998,-15.989 c -0.547,-2.979 -1.923,-10.52 -3.578,-11.402 0,0 1.605,-0.304 5.138,-0.991 3.534,-0.688 5.266,-1.156 5.266,-1.156 -0.87,1.789 0.664,9.024 1.081,11.559 l 0.952,5.074 12.174,-2.968 -1.313,-5.184 c -0.715,-2.747 -2.227,-9.337 -3.918,-10.56 0,0 1.671,-0.483 5.058,-1.446 3.388,-0.956 4.849,-1.503 4.849,-1.503 -0.672,1.828 1.212,8.246 1.992,11.555 l 3.744,15.715"
       id="path8086" /><path
       style="fill:#001c58"
       inkscape:connector-curvature="0"
       d="m 252.146,978.75204 -12.072,4.728 0.419,6.629 c 0.27,2.263 0.278,4.341 0.773,5.513 0.243,0.582 0.661,0.968 1.06,1.176 0,0 -1.26,0.457 -3.333,1.13 -2.075,0.671 -3.215,1 -3.215,1 0.724,-1.248 0.898,-2.966 0.835,-5.11 l -1.063,-31.427 c -0.101,-1.142 -0.237,-2.212 -0.616,-3.109 -0.336,-0.801 -0.902,-1.251 -1.297,-1.587 1.375,-0.891 3.095,-1.867 4.844,-2.601 2.773,-1.169 3.943,-1.122 5.966,1.237 l 17.71,21.965 c 3.221,4.192 6.067,7.013 7.92,7.575 0,0 -1.811,0.835 -5.215,2.352 -3.404,1.511 -5.656,2.37 -5.656,2.37 0.201,-0.711 0.225,-1.465 -0.219,-2.597 -0.474,-1.223 -2.216,-3.293 -3.34,-4.863 l -3.501,-4.381 m -2.191,-2.602 -10.727,-14.864 0.756,18.669 9.971,-3.805 z"
       id="path8088" /><path
       style="fill:#001c58"
       inkscape:connector-curvature="0"
       d="m 302.724,967.35804 c -2.428,1.637 -4.246,2.89 -4.246,2.89 -0.178,-2.39 -4.791,-8.297 -6.146,-10.09 l -10.404,-13.57 8.369,26.754 c -0.326,0.531 -0.918,1.274 -1.471,1.691 -1.65,1.255 -3.257,1.008 -4.725,-0.147 l -19.811,-16.423 6.934,12.771 c 1.696,3.234 4.965,9.965 7.166,10.629 0,0 -1.368,0.73 -3.1,1.569 -1.719,0.832 -2.77,1.321 -2.77,1.321 0.384,-1.879 -2.835,-7.465 -4.709,-11.04 l -7.716,-14.513 c -2.341,-4.366 -4.923,-8.812 -7.14,-9.698 1.715,-0.832 2.233,-1.086 4.688,-2.298 2.045,-1.008 3.849,-1.996 3.849,-1.996 l 22.304,18.974 -8.773,-26.863 c 0,0 1.176,-0.798 3.406,-2.286 2.224,-1.489 4.23,-2.969 4.23,-2.969 0.17,2.402 4.814,8.528 6.506,10.72 l 9.605,12.359 c 2.037,2.543 5.847,8.204 8.559,8.853 -0.001,-0.002 -2.173,1.717 -4.605,3.362"
       id="path8090" /><path
       style="fill:#001c58"
       inkscape:connector-curvature="0"
       d="m 272.458,1007.226 1.095,1.403 c 0.32,0.391 0.645,0.874 0.988,1.019 0,0 -0.285,0.204 -0.563,0.392 -0.277,0.183 -0.482,0.328 -0.482,0.328 -0.076,-0.378 -0.541,-0.965 -0.693,-1.169 l -1.164,-1.538 0.953,3.036 c -0.039,0.062 -0.105,0.145 -0.17,0.19 -0.249,0.191 -0.433,0.082 -0.6,-0.051 l -2.295,-1.832 0.896,1.452 c 0.213,0.376 0.598,1.067 0.902,1.208 0,0 -0.169,0.101 -0.375,0.222 -0.18,0.106 -0.356,0.196 -0.356,0.196 0.042,-0.367 -0.421,-1.09 -0.56,-1.34 l -0.983,-1.648 c -0.226,-0.374 -0.581,-0.922 -0.899,-1.015 0,0 0.309,-0.161 0.611,-0.329 0.189,-0.104 0.38,-0.228 0.495,-0.29 l 2.538,2.112 -0.977,-3.011 c 0.094,-0.043 0.241,-0.134 0.469,-0.274 0.293,-0.179 0.535,-0.343 0.535,-0.343 -10e-4,0.368 0.425,0.999 0.635,1.282"
       id="path8092" /><path
       style="fill:#001c58"
       inkscape:connector-curvature="0"
       d="m 74.461,1016.205 c 2.067,0.759 4.734,1.684 4.734,1.684 -2.246,1.629 -4.309,8.104 -5.648,11.621 l -5.18,14.372 c -1.386,3.901 -3.75,9.556 -2.958,11.573 0,0 -2.85,-0.984 -5.156,-1.803 -1.973,-0.704 -3.093,-1.079 -5.183,-1.973 2.539,-0.673 4.933,-9.118 5.711,-11.242 l 2.371,-6.708 -12.415,-5.176 -3.59,7.672 c -1.169,2.665 -3.965,8.699 -3.3,10.59 0,0 -2.193,-0.895 -5.403,-2.371 -3.781,-1.741 -4.604,-2.202 -4.604,-2.202 2.664,-1.31 4.242,-5.61 6.27,-9.955 l 6.492,-14.378 c 2.194,-4.922 4.175,-9.188 4.026,-11.993 0,0 1.159,0.691 4.352,2.126 2.544,1.144 3.843,1.716 5.271,2.288 -2.021,0.804 -4.833,8.059 -6.317,11.313 l -1.902,4.063 12.128,4.996 1.86,-4.605 c 0.871,-2.353 3.879,-9.383 3.23,-11.79 0,10e-4 2.489,0.904 5.211,1.898"
       id="path8094" /><path
       style="fill:#001c58"
       inkscape:connector-curvature="0"
       d="m 88.485,1062.848 c -10.812,-2.844 -14.25,-13.313 -11.383,-24.22 2.882,-10.965 11.07,-18.313 21.829,-15.479 10.754,2.827 14.265,13.253 11.387,24.218 -2.871,10.91 -11.019,18.324 -21.833,15.481 m 9.615,-36.54 c -6.911,-1.817 -10.481,6.104 -12.691,14.505 -2.216,8.394 -3.013,17.109 3.894,18.93 6.911,1.813 10.5,-6.165 12.708,-14.561 2.214,-8.398 2.998,-17.054 -3.911,-18.874 z"
       id="path8096" /><path
       style="fill:#001c58"
       inkscape:connector-curvature="0"
       d="m 117.771,1066.708 c 0,0 0.688,-0.744 1.157,-2.259 0.661,-2.129 1.086,-6.222 1.595,-9.414 l 3.027,-23.407 c -6.449,-0.809 -8.087,-0.345 -10.919,1.332 l 2.657,-5.993 c 2.008,0.445 6.458,0.926 11.871,1.609 3.622,0.453 14.411,1.427 14.411,1.427 l 0.367,5.995 c -2.379,-2.753 -4.848,-3.003 -10.223,-3.425 l -3.015,23.485 c -0.27,2.187 -1.47,9.773 -0.28,12.019 -1.297,-0.147 -3.445,-0.391 -5.247,-0.57 -1.869,-0.191 -4.327,-0.616 -5.401,-0.799"
       id="path8098" /><path
       style="fill:#001c58"
       inkscape:connector-curvature="0"
       d="m 169.164,1058.578 c 0.074,7.047 -5.657,12.148 -14.473,12.019 -6.856,-0.1 -10.441,-2.921 -11.813,-4.069 l 1.427,-6.688 c 2.128,4.262 5.656,7.359 9.628,7.422 4.149,0.058 7.414,-2.384 7.481,-6.496 0.043,-2.989 -1.602,-4.794 -8.523,-8.396 -6.633,-3.425 -9.102,-6.843 -9.102,-11.938 0,-6.938 6.035,-10.462 13.125,-10.464 5.214,-0.01 8.851,1.593 11.136,2.814 l -1.473,6.128 c -3.163,-4.225 -6.027,-5.789 -9.481,-5.837 -3.402,-0.056 -5.812,1.8 -5.789,5.296 0.023,3.811 4.215,5.871 9.868,9.028 6.5,3.637 7.95,7.283 7.989,11.181"
       id="path8100" /><path
       style="fill:#001c58"
       inkscape:connector-curvature="0"
       d="m 201.265,1036.992 c 0.252,0.827 0.403,1.831 0.481,2.62 0.067,0.728 0.103,1.691 0.016,2.603 -0.187,2.284 -1.271,4.938 -3.063,6.804 -2.737,2.859 -6.306,4.281 -11.036,4.502 -1.824,0.112 -2.261,-0.445 -2.383,-1.762 l -0.011,-0.286 c 0,0 -0.039,-0.509 0.359,-0.536 l 0.458,-0.045 c 1.397,-0.174 3.472,-0.611 5.135,-2.634 1.596,-2.082 2.141,-4.848 1.863,-7.825 -0.296,-3.093 -1.225,-5.32 -3.304,-6.921 -1.805,-1.387 -3.926,-1.838 -6.109,-1.665 0,0 -0.876,0.074 -1.848,0.228 0,0 -0.569,0.051 -0.521,0.608 l 2.344,24.277 c 0.203,2.137 0.785,9.66 2.539,11.212 0,0 -1.996,0.211 -5.755,0.52 -2.866,0.234 -5.101,0.292 -5.101,0.292 0.754,-1.863 0.629,-4.618 0.441,-7.825 l -1.816,-19.144 c -0.207,-2.191 -0.577,-9.701 -2.363,-11.556 0,0 4.805,-0.711 13.695,-1.551 4.649,-0.44 8.457,0.152 11.742,2.375 2.151,1.447 3.628,3.556 4.237,5.709"
       id="path8102" /><path
       style="fill:#001c58"
       inkscape:connector-curvature="0"
       d="m 237.641,1044.82 c 1.903,8.414 -2.046,15.578 -10.802,17.767 -6.152,1.538 -15.012,-0.719 -17.484,-11.512 l -3.012,-12.743 c -0.793,-3.567 -2.09,-9.883 -4.159,-11.528 0,0 2.313,-0.327 5.935,-1.003 3.621,-0.676 5.303,-1.079 5.303,-1.079 -0.951,1.499 0.048,7.403 0.994,11.74 l 3.844,16.198 c 0.686,2.969 1.655,5.001 3.32,6.199 1.233,0.892 2.881,1.135 4.598,0.822 1.562,-0.291 3.188,-1.173 4.039,-2.755 0.902,-1.66 0.898,-4.062 0.203,-7.027 l -4.315,-16.198 c -1.181,-4.459 -2.54,-10.04 -4.001,-10.974 0,0 1.758,-0.477 5.09,-1.43 2.523,-0.719 4.023,-1.156 5.113,-1.54 -0.996,2.438 1.375,9.916 1.877,12.056 l 3.457,13.007"
       id="path8104" /><path
       style="fill:#001c58"
       inkscape:connector-curvature="0"
       d="m 276.955,1041.5 c 0.848,0.325 1.762,0.548 2.529,0.222 -0.088,0.528 -0.584,1.583 -1.414,2.435 -3.541,3.628 -6.863,3.004 -7.989,2.559 -6.104,-2.328 -16.313,-11.375 -16.733,-12.363 0,0 -0.105,-0.258 0.16,-0.367 l 0.369,-0.164 c 1.595,-0.663 3.404,-2.466 4.117,-4.171 1.142,-2.501 0.949,-4.747 -0.21,-7.496 -1.2,-2.859 -3.3,-4.661 -4.945,-5.146 -2.434,-0.719 -4.249,-0.148 -5.356,0.293 0,0 -1.46,0.574 -1.895,1.012 0,0 -0.293,0.242 0.048,1.238 l 7.712,22.027 c 1.172,3.24 3.207,9.561 5.051,10.626 0,0 -2.084,0.819 -5.243,1.961 -3.16,1.141 -5.082,1.672 -5.082,1.672 0.644,-2.46 -1.79,-9.148 -2.403,-11.024 l -4.987,-14.874 c -1.247,-3.586 -3.522,-10.012 -5.376,-11.04 0,0 3.641,-1.02 11.825,-4.457 4.353,-1.828 8.569,-2.61 12.374,-1.496 2.309,0.679 3.869,1.838 5.146,3.688 0.488,0.716 0.847,1.419 1.157,2.147 0.283,0.677 0.479,1.454 0.608,2.176 0.403,2.248 0.065,4.638 -1.235,6.892 0,0 -1.172,2.27 -3.675,4.051 -0.003,0 8.036,6.807 15.447,9.599"
       id="path8106" /></g></svg>