<?xml version="1.0" encoding="UTF-8" standalone="no"?>
<!-- Created with Inkscape (http://www.inkscape.org/) -->

<svg
   xmlns:dc="http://purl.org/dc/elements/1.1/"
   xmlns:cc="http://creativecommons.org/ns#"
   xmlns:rdf="http://www.w3.org/1999/02/22-rdf-syntax-ns#"
   xmlns:svg="http://www.w3.org/2000/svg"
   xmlns="http://www.w3.org/2000/svg"
   xmlns:sodipodi="http://sodipodi.sourceforge.net/DTD/sodipodi-0.dtd"
   xmlns:inkscape="http://www.inkscape.org/namespaces/inkscape"
   version="1.2"
   id="Layer_1"
   x="0px"
   y="0px"
   width="512"
   height="512"
   viewBox="0 0 512.00001 511.99999"
   xml:space="preserve"
   inkscape:version="0.91 r13725"
   inkscape:export-xdpi="90"
   inkscape:export-ydpi="90"
   sodipodi:docname="icon.svg"><metadata
     id="metadata28"><rdf:RDF><cc:Work
         rdf:about=""><dc:format>image/svg+xml</dc:format><dc:type
           rdf:resource="http://purl.org/dc/dcmitype/StillImage" /><dc:title></dc:title></cc:Work></rdf:RDF></metadata><defs
     id="defs26" /><sodipodi:namedview
     pagecolor="#ffffff"
     bordercolor="#666666"
     borderopacity="1"
     objecttolerance="10"
     gridtolerance="10"
     guidetolerance="10"
     inkscape:pageopacity="1"
     inkscape:pageshadow="2"
     inkscape:window-width="1600"
     inkscape:window-height="836"
     id="namedview24"
     showgrid="false"
     fit-margin-top="0"
     fit-margin-left="0"
     fit-margin-right="0"
     fit-margin-bottom="0"
     inkscape:zoom="0.7458559"
     inkscape:cx="130.94585"
     inkscape:cy="282.96565"
     inkscape:window-x="0"
     inkscape:window-y="27"
     inkscape:window-maximized="1"
     inkscape:current-layer="layer3" /><g
     inkscape:groupmode="layer"
     id="layer3"
     inkscape:label="Background"
     style="display:inline;opacity:0.99"><rect
       style="opacity:1;fill:#0f204b;fill-opacity:1;stroke:none;stroke-opacity:1"
       id="rect3293"
       width="512"
       height="512"
       x="0"
       y="-2.3603439e-05"
       inkscape:export-xdpi="90"
       inkscape:export-ydpi="90" /></g><g
     inkscape:groupmode="layer"
     id="layer2"
     inkscape:label="Logo"
     style="display:inline;opacity:0.95"
     transform="translate(-47.291837,9.6478448)"><path
       id="path8070"
       d="m 114.91371,266.5921 c 0,9.74786 -4.15776,17.67504 -6.55982,20.07673 -7.44417,7.44491 -13.584102,2.02337 -13.650927,9.49241 -3.378105,3.05921 -5.808387,7.71037 -7.000875,13.02276 0.07425,0.008 0.147757,0.0179 0.220522,0.0316 0.699098,0.12735 1.29942,0.52683 1.757554,1.15722 9.454926,-7.70553 24.012106,-11.75711 35.138816,-9.24107 3.53738,0.7997 6.53792,2.1058 8.81041,4.10393 -3.41672,-5.5266 -8.64037,-9.79166 -14.81483,-12.00513 -1.46537,-0.52533 -4.07088,-1.12715 -4.07088,-5.88263 0,-8.87464 9.70998,-1.97438 16.10719,-11.64092 0.31334,-0.47745 -0.13738,-0.89399 -0.51347,-0.51865 -1.93463,1.93353 -6.68715,3.26414 -9.2006,3.26414 -2.5164,0 -3.46275,-0.57324 -3.46275,-0.57324 2.37532,-4.7269 5.33391,-8.75026 5.33391,-8.75026 -5.9387,-5.9387 4.0564,-38.58969 30.50361,-38.58969 0,-7.57374 -0.80007,-13.48163 -1.7724,-17.87478 -0.62892,0.15334 -5.61051,1.32801 -5.83884,0.28031 -0.20159,-0.92815 3.66956,-2.94039 5.00239,-3.60235 -1.29979,-4.52717 -2.59439,-6.64892 -2.59439,-6.64892 -22.66813,7.14195 -18.11237,25.9096 -23.63451,25.9096 -3.59456,0 -6.41763,-2.79783 -7.42598,-3.80617 -13.53954,-13.53732 -7.22922,-22.49698 -7.22922,-40.48683 0,-12.11873 -4.70648,-16.65741 -13.39808,-16.65741 -8.691247,0 -11.796472,3.76349 -11.796472,3.76349 0,0 11.908582,0.38574 11.908582,12.89392 0,13.09513 -14.74689,16.70975 -14.74689,33.32184 -7.42e-4,27.65493 32.92795,27.13553 32.92795,48.96016 M 99.21565,184.31162 c 0,-1.60533 -0.17263,-3.05511 -0.48597,-4.36344 0,0 2.59177,-0.1355 2.59177,-3.28974 0,-2.60032 -1.73454,-4.37309 -2.19972,-4.37309 -0.37535,0 -0.46853,0.39836 -1.28086,0.39836 -1.979562,0 -2.124361,-2.52941 -2.124361,-2.52941 0.292931,-0.0101 0.594021,-0.0145 0.902911,-0.0145 5.66769,0 10.91361,1.71635 10.91361,14.17255 0,4.60624 -0.43661,8.70535 -0.82086,12.32144 -0.38129,3.57154 -0.73361,6.89358 -0.63226,10.13767 0,0 -9.86962,-1.16316 -9.86962,-8.5884 0,-4.82194 3.00536,-5.99514 3.00536,-13.87145 z m -13.867737,136.4732 c -0.63486,-0.15928 -1.183208,-0.55282 -1.606455,-1.1435 -2.146635,3.31128 -3.051765,6.2721 -2.262465,8.92922 3.30237,11.14974 13.139696,19.38432 24.921317,20.48103 C 95.140318,345.6315 86.80697,333.89851 85.347913,320.78482 Z m -2.30553,-6.58953 c -0.709493,-0.50529 -1.316869,-0.97902 -1.749015,-1.39149 -0.752918,2.7737 -1.10043,5.70815 -0.977164,8.73207 0.02419,0.6111 0.06795,1.21589 0.128452,1.81548 0.435859,-1.78689 1.293852,-3.6536 2.523837,-5.55742 -0.237972,-1.11416 -0.200475,-2.38128 0.07391,-3.59864 z m 0.55503,-1.70187 c 0.297382,-0.6757 0.670128,-1.29941 1.113783,-1.82512 0.356783,-0.42064 0.736954,-0.75477 1.140514,-1.00278 1.071473,-4.99384 3.309435,-9.44192 6.58062,-12.80408 -4.884322,3.47279 -8.627749,8.42357 -10.595812,14.16921 0.261371,0.35753 0.956002,0.89808 1.760895,1.46277 z m 42.253297,25.63563 c -2.43844,-0.27065 -5.70035,-0.91516 -7.12414,-1.4082 -1.58973,-0.54946 -3.00424,-1.87784 -3.7813,-3.55557 -0.32189,-0.69351 -0.61295,-1.6161 -0.65936,-2.73434 -0.0263,-0.66865 0.0375,-1.4056 0.23315,-2.20382 -8.93924,-2.72654 -18.40789,-6.51267 -24.999647,-10.0326 -0.232043,0.42472 -0.497115,0.81937 -0.79488,1.17133 -0.49563,0.58659 -1.052528,1.01205 -1.625749,1.25486 0.618896,5.48466 2.523465,10.85903 5.556307,15.54177 4.022989,6.2112 9.502069,10.46809 15.420729,11.80834 2.09837,0.47262 4.84125,1.06293 7.29492,0.51939 9.09777,-2.01483 16.51372,-8.30772 20.13872,-16.58574 -0.42509,0.0757 -0.90216,0.1188 -1.41488,0.13662 -2.07536,6.07347 -6.44102,6.28733 -8.24387,6.08796 z m 10.18446,-28.02359 c -1.32689,-3.47537 -5.76199,-5.94018 -11.60379,-7.26336 -10.8,-2.44142 -24.98628,1.59161 -34.01352,9.1865 0.34677,1.38481 0.243923,3.0373 -0.221636,4.54425 6.504506,3.49728 15.964256,7.28267 24.889016,9.99956 2.1006,-4.82343 6.1221,-5.74343 9.25853,-4.95931 2.24687,0.5606 3.69108,0.85464 4.74546,1.06663 l 1.16019,0.24504 c 1.491,0.34861 2.79894,1.33913 3.58305,2.71948 0.55578,0.97494 1.06626,2.51679 0.7184,4.64078 1.09633,-0.0642 1.62723,-0.24801 1.75012,-0.39317 1.17022,-3.33912 1.74047,-6.95114 1.58677,-10.69902 -0.12808,-3.19879 -0.77333,-6.25317 -1.85259,-9.08738 z m -19.50015,22.32137 c 0.6846,1.47762 1.87672,2.33228 2.76479,2.63783 1.1535,0.40021 4.20638,1.04137 6.7421,1.31945 2.78149,0.30778 4.95598,-1.23964 6.19562,-4.36678 -0.93076,-0.0534 -1.92721,-0.1626 -2.95859,-0.30592 -0.19342,0.62929 -0.43957,1.2571 -0.75699,1.81437 -0.2391,0.42064 -0.77298,0.56542 -1.19362,0.32781 -0.42063,-0.23909 -0.56728,-0.77445 -0.32782,-1.19657 0.21014,-0.3694 0.38425,-0.78893 0.52831,-1.22109 -0.5439,-0.0928 -1.09114,-0.19564 -1.63281,-0.30034 -0.186,0.72656 -0.39874,1.41673 -0.62224,1.93316 -0.19342,0.44328 -0.71097,0.64488 -1.15462,0.45257 -0.44403,-0.19306 -0.64526,-0.70949 -0.45257,-1.15277 0.1808,-0.41507 0.35382,-0.97791 0.51345,-1.58788 -0.28437,-0.0624 -0.56542,-0.12475 -0.84387,-0.1875 -0.29441,-0.066 -0.59588,-0.13736 -0.8966,-0.20976 -0.15778,0.50789 -0.34342,1.03583 -0.56951,1.57044 -0.18712,0.44551 -0.70391,0.65417 -1.14905,0.4663 -0.44478,-0.18748 -0.65529,-0.70243 -0.46669,-1.14719 0.18861,-0.44106 0.34528,-0.88064 0.47857,-1.30387 -1.47652,-0.37461 -2.99349,-0.79079 -4.53163,-1.23965 -0.37126,1.61351 -0.0494,2.87505 0.33377,3.69739 z m 16.23601,-2.14218 c 0.35901,-1.77945 -0.0297,-3.01798 -0.46185,-3.77498 -0.54203,-0.956 -1.44012,-1.64098 -2.45627,-1.87895 l -1.11118,-0.2339 c -1.01132,-0.2042 -2.53646,-0.51457 -4.82195,-1.08483 -3.06142,-0.76479 -5.68773,0.63745 -7.13862,3.76348 1.49136,0.43363 2.96007,0.83422 4.39129,1.19694 0.23054,-1.11341 0.27993,-1.88563 0.27993,-1.89937 0.0297,-0.48226 0.44403,-0.85093 0.92703,-0.82271 0.48264,0.0282 0.8513,0.44105 0.82235,0.92555 -0.003,0.0628 -0.0594,0.94857 -0.32522,2.21235 0.28326,0.0665 0.56728,0.13328 0.84573,0.19565 0.28699,0.0657 0.56988,0.12847 0.84684,0.18675 0.2495,-1.23148 0.41026,-2.27881 0.41471,-2.2996 0.0723,-0.47818 0.51939,-0.80638 0.99646,-0.73398 0.48004,0.0713 0.80825,0.51829 0.73695,0.99721 -0.0126,0.0843 -0.17523,1.13272 -0.43214,2.38944 0.58734,0.11472 1.14422,0.2146 1.67254,0.30481 0.19417,-1.06255 0.24169,-1.90754 0.24169,-1.92351 0.0231,-0.48264 0.43549,-0.85539 0.9185,-0.83125 0.48413,0.0231 0.85725,0.43363 0.83236,0.91553 -0.003,0.072 -0.0508,0.95933 -0.25876,2.10134 1.21402,0.16484 2.23351,0.25505 3.07961,0.29403 z M 87.67016,310.59368 c -0.38835,-0.071 -1.159087,-0.0654 -1.929082,0.77185 -1.21959,1.32207 -1.79208,3.1134 -1.704083,5.32018 l 0,0 c 0.02452,0.56283 0.103163,0.87803 0.262474,1.33172 0.284389,0.80192 0.967511,1.33209 1.466482,1.42267 0.59328,0.10879 1.263038,-0.23835 1.888234,-0.97827 1.365885,-1.62057 1.95507,-4.59214 1.284941,-6.48854 -0.278448,-0.79006 -0.728043,-1.28049 -1.268966,-1.37961 z"
       inkscape:connector-curvature="0"
       style="fill:#ffffff;fill-opacity:1" /><text
       xml:space="preserve"
       style="font-style:normal;font-weight:normal;font-size:89.93621826px;line-height:125%;font-family:sans-serif;letter-spacing:0px;word-spacing:0px;fill:#000000;fill-opacity:1;stroke:none;stroke-width:1px;stroke-linecap:butt;stroke-linejoin:miter;stroke-opacity:1"
       x="175.47299"
       y="265.17426"
       id="text3233"
       sodipodi:linespacing="125%"><tspan
         sodipodi:role="line"
         id="tspan3235"
         x="175.47299"
         y="265.17426"
         style="font-style:normal;font-variant:normal;font-weight:normal;font-stretch:normal;font-size:89.93621826px;font-family:Spurs;-inkscape-font-specification:Spurs;fill:#ffffff;fill-opacity:1">SPURS TV</tspan></text>
</g></svg>