<?xml version="1.0" encoding="UTF-8" standalone="no"?>
<!-- Created with Inkscape (http://www.inkscape.org/) -->

<svg
   xmlns:dc="http://purl.org/dc/elements/1.1/"
   xmlns:cc="http://creativecommons.org/ns#"
   xmlns:rdf="http://www.w3.org/1999/02/22-rdf-syntax-ns#"
   xmlns:svg="http://www.w3.org/2000/svg"
   xmlns="http://www.w3.org/2000/svg"
   xmlns:sodipodi="http://sodipodi.sourceforge.net/DTD/sodipodi-0.dtd"
   xmlns:inkscape="http://www.inkscape.org/namespaces/inkscape"
   width="256"
   height="256"
   viewBox="0 0 256 256"
   id="svg2"
   version="1.1"
   inkscape:version="0.91 r13725"
   sodipodi:docname="icon.svg"
   inkscape:export-xdpi="180"
   inkscape:export-ydpi="180">
  <defs
     id="defs4" />
  <sodipodi:namedview
     id="base"
     pagecolor="#ffffff"
     bordercolor="#666666"
     borderopacity="1.0"
     inkscape:pageopacity="1"
     inkscape:pageshadow="2"
     inkscape:zoom="1.4"
     inkscape:cx="68.586684"
     inkscape:cy="43.926586"
     inkscape:document-units="px"
     inkscape:current-layer="layer1"
     showgrid="false"
     units="px"
     inkscape:window-width="1600"
     inkscape:window-height="836"
     inkscape:window-x="0"
     inkscape:window-y="27"
     inkscape:window-maximized="1" />
  <metadata
     id="metadata7">
    <rdf:RDF>
      <cc:Work
         rdf:about="">
        <dc:format>image/svg+xml</dc:format>
        <dc:type
           rdf:resource="http://purl.org/dc/dcmitype/StillImage" />
        <dc:title />
      </cc:Work>
    </rdf:RDF>
  </metadata>
  <g
     inkscape:groupmode="layer"
     id="layer2"
     inkscape:label="Logo"
     style="display:inline;opacity:0.3">
    <path
       inkscape:connector-curvature="0"
       style="fill:#000033;fill-opacity:0.94117647"
       id="path8070"
       d="m 164.98484,202.29995 c 0,18.95017 -8.08281,34.36086 -12.75253,39.02984 -14.47171,14.47317 -26.40792,3.9335 -26.53784,18.45358 -6.56717,5.94719 -11.29172,14.98922 -13.60997,25.31667 0.14438,0.0159 0.28725,0.0346 0.4287,0.0614 1.35905,0.24757 2.52614,1.02416 3.41675,2.24972 18.38071,-14.97984 46.68036,-22.85627 68.31106,-17.96502 6.87679,1.55466 12.70994,4.09375 17.12776,7.97818 -6.64223,-10.74387 -16.79718,-19.0353 -28.80053,-23.33836 -2.84874,-1.02128 -7.91395,-2.19122 -7.91395,-11.43605 0,-17.25262 18.87653,-3.83825 31.31294,-22.63034 0.60915,-0.92817 -0.26705,-1.73798 -0.99818,-1.00829 -3.761,3.75888 -13.00007,6.34559 -17.88631,6.34559 -4.89198,0 -6.73171,-1.11436 -6.73171,-1.11436 4.6177,-9.18928 10.3693,-17.01084 10.3693,-17.01084 -11.54501,-11.54503 7.88581,-75.01969 59.30009,-75.01969 0,-14.72362 -1.55537,-26.20875 -3.44561,-34.74917 -1.22264,0.29807 -10.90703,2.58168 -11.35092,0.54491 -0.39188,-1.80438 7.13376,-5.71623 9.72481,-7.00309 -2.52682,-8.80097 -5.04356,-12.925754 -5.04356,-12.925754 -44.06762,13.884214 -35.21106,50.369174 -45.94633,50.369174 -6.98791,0 -12.47609,-5.43907 -14.43637,-7.39933 -26.32133,-26.31702 -14.05379,-43.734899 -14.05379,-78.707788 0,-23.559241 -9.14958,-32.382559 -26.04636,-32.382559 -16.89608,0 -22.93276,7.316322 -22.93276,7.316322 0,0 23.15073,0.749922 23.15073,25.066237 0,25.457434 -28.66847,32.484341 -28.66847,64.778848 -0.001,53.76213 64.01305,52.7524 64.01305,95.18023 M 134.4673,42.343777 c 0,-3.120821 -0.33563,-5.939233 -0.9448,-8.482677 0,0 5.03851,-0.263427 5.03851,-6.395384 0,-5.055107 -3.37198,-8.501449 -4.27631,-8.501449 -0.72971,0 -0.91086,0.774441 -2.49006,0.774441 -3.84835,0 -4.12982,-4.917263 -4.12982,-4.917263 0.56945,-0.01931 1.15481,-0.0281 1.75529,-0.0281 11.01817,0 21.21643,3.336629 21.21643,27.551927 0,8.954696 -0.84876,16.923499 -1.59579,23.953279 -0.74121,6.943195 -1.42616,13.401392 -1.2291,19.707999 0,0 -19.18689,-2.26124 -19.18689,-16.696145 0,-9.374034 5.84254,-11.654739 5.84254,-26.966586 z M 107.50792,307.65242 c -1.23417,-0.30971 -2.3002,-1.07456 -3.123,-2.22294 -4.17311,6.43724 -5.932738,12.19329 -4.398323,17.35868 6.419943,21.67557 25.544023,37.68387 48.447903,39.81575 -21.88983,-6.64871 -38.09012,-29.45783 -40.92658,-54.95149 z m -4.48205,-12.81023 c -1.37925,-0.9823 -2.56005,-1.90325 -3.400146,-2.70512 -1.463706,5.39217 -2.139243,11.0968 -1.899614,16.97551 0.04695,1.18798 0.131853,2.36369 0.249708,3.52932 0.847317,-3.47376 2.515282,-7.10274 4.906422,-10.80385 -0.46263,-2.16598 -0.38973,-4.62924 0.14368,-6.99585 z m 1.07902,-3.3085 c 0.5781,-1.31356 1.30274,-2.5261 2.16522,-3.54809 0.69361,-0.81775 1.43269,-1.46732 2.21721,-1.94944 2.08295,-9.70822 6.43365,-18.35544 12.79295,-24.89157 -9.49529,6.75121 -16.77264,16.37567 -20.59861,27.54541 0.5081,0.69506 1.85847,1.74593 3.42323,2.84369 z m 82.14187,49.83667 c -4.74041,-0.52631 -11.08168,-1.77927 -13.84959,-2.73785 -3.09049,-1.06796 -5.84037,-3.65033 -7.35097,-6.91194 -0.62578,-1.34827 -1.1916,-3.14175 -1.2818,-5.31562 -0.0512,-1.29989 0.0729,-2.73258 0.45323,-4.28438 -17.37818,-5.30044 -35.78558,-12.66078 -48.60019,-19.50374 -0.45109,0.82573 -0.96643,1.59296 -1.54525,2.27708 -0.96353,1.14041 -2.04615,1.96752 -3.16051,2.43957 1.20314,10.66234 4.90569,21.1103 10.80164,30.21383 7.82082,12.07463 18.47236,20.35015 29.97841,22.95568 4.07932,0.91868 9.41158,2.06627 14.18157,1.00969 17.6864,-3.91677 32.10329,-16.15038 39.15038,-32.24312 -0.82638,0.14685 -1.75383,0.23084 -2.75056,0.26549 -4.03457,11.80705 -12.52157,12.22291 -16.02636,11.83531 z m 19.79891,-54.47894 c -2.57953,-6.75625 -11.20149,-11.54792 -22.55814,-14.12023 -20.99558,-4.7462 -48.57423,3.0941 -66.12346,17.85886 0.67411,2.69211 0.47418,5.90462 -0.43089,8.83423 12.645,6.7988 31.03509,14.15776 48.38511,19.43953 4.08363,-9.377 11.90159,-11.16536 17.9989,-9.64118 4.36798,1.08996 7.17563,1.66162 9.22536,2.07363 l 2.25544,0.47635 c 2.89855,0.67779 5.44126,2.60344 6.96558,5.2867 1.08047,1.89533 2.07286,4.89276 1.39658,9.02197 2.13132,-0.12461 3.1634,-0.48224 3.40231,-0.76432 2.27494,-6.49131 3.38354,-13.51323 3.08473,-20.79941 -0.249,-6.21852 -1.50338,-12.15633 -3.60152,-17.66613 z m -37.90895,43.39356 c 1.3309,2.87245 3.64842,4.53406 5.37486,5.12805 2.24243,0.77805 8.17737,2.02445 13.10689,2.56514 5.4073,0.59814 9.63458,-2.40999 12.04446,-8.48926 -1.8094,-0.10538 -3.74657,-0.31626 -5.75158,-0.59481 -0.37602,1.22343 -0.85453,2.44397 -1.47163,3.52725 -0.4648,0.8178 -1.50268,1.09923 -2.32043,0.63725 -0.81773,-0.4647 -1.10281,-1.50548 -0.63727,-2.32601 0.40848,-0.71834 0.74697,-1.53374 1.02702,-2.37389 -1.05736,-0.18055 -2.1212,-0.3804 -3.17422,-0.58395 -0.36158,1.41245 -0.77516,2.75415 -1.20966,3.75808 -0.37602,0.86186 -1.38214,1.25377 -2.24462,0.8799 -0.8632,-0.37529 -1.2544,-1.3794 -0.87981,-2.24108 0.35149,-0.80695 0.68781,-1.90106 0.99818,-3.08682 -0.55286,-0.12144 -1.09923,-0.24263 -1.64053,-0.3646 -0.57237,-0.1292 -1.1584,-0.2669 -1.74303,-0.4077 -0.30672,0.98732 -0.66761,2.0136 -1.10716,3.05298 -0.36375,0.86601 -1.36844,1.27163 -2.23382,0.90653 -0.86463,-0.36459 -1.27385,-1.36547 -0.9072,-2.23021 0.36664,-0.85754 0.67121,-1.71207 0.93029,-2.5348 -2.87036,-0.72826 -5.81941,-1.53728 -8.80961,-2.40999 -0.72174,3.13678 -0.0962,5.58938 0.64887,7.18794 z m 31.56338,-4.16449 c 0.69792,-3.45941 -0.0577,-5.86714 -0.89785,-7.33865 -1.05374,-1.85859 -2.79965,-3.19025 -4.77508,-3.65271 l -2.16015,-0.45479 c -1.96606,-0.39685 -4.93099,-1.00042 -9.37407,-2.1089 -5.95148,-1.48683 -11.05714,1.23922 -13.87771,7.31628 2.89924,0.84301 5.75447,1.62186 8.53681,2.32696 0.44819,-2.16445 0.54418,-3.6658 0.54418,-3.69247 0.0579,-0.93751 0.8632,-1.65427 1.8022,-1.59935 0.93827,0.0544 1.65497,0.85739 1.59866,1.79923 -0.007,0.12285 -0.11544,1.84406 -0.63224,4.30097 0.55069,0.12921 1.10282,0.2591 1.64414,0.38026 0.55792,0.12779 1.10788,0.24981 1.6463,0.36316 0.48501,-2.39401 0.79752,-4.43014 0.80619,-4.47052 0.14085,-0.9297 1.0097,-1.56776 1.93717,-1.42694 0.93323,0.13891 1.57124,1.00759 1.43268,1.93857 -0.0245,0.1638 -0.34068,2.20213 -0.84012,4.6453 1.14177,0.22287 2.22441,0.41697 3.25147,0.59241 0.37745,-2.06566 0.46983,-3.70828 0.46983,-3.73941 0.0448,-0.93815 0.84663,-1.66288 1.78561,-1.61595 0.94116,0.0447 1.66653,0.84303 1.61815,1.77989 -0.007,0.1405 -0.099,1.865 -0.50305,4.08501 2.36011,0.32054 4.34203,0.49584 5.98688,0.57165 z m -87.67767,-38.27996 c -0.75494,-0.13803 -2.25328,-0.12709 -3.75019,1.50049 -2.37093,2.57014 -3.48385,6.05256 -3.3128,10.34265 l 0,0 c 0.0475,1.09418 0.20066,1.70695 0.51025,2.58893 0.55289,1.5589 1.88089,2.58956 2.85092,2.76562 1.15334,0.21152 2.45535,-0.46326 3.67079,-1.90178 2.65533,-3.15041 3.80071,-8.92725 2.49795,-12.61392 -0.54128,-1.53588 -1.41534,-2.48928 -2.46692,-2.68199 z"
       inkscape:export-xdpi="180"
       inkscape:export-ydpi="180" />
    <text
       xml:space="preserve"
       style="font-style:normal;font-weight:normal;font-size:40px;line-height:125%;font-family:sans-serif;letter-spacing:0px;word-spacing:0px;fill:#000000;fill-opacity:1;stroke:none;stroke-width:1px;stroke-linecap:butt;stroke-linejoin:miter;stroke-opacity:1"
       x="29.7995"
       y="22.654764"
       id="text4207"
       sodipodi:linespacing="125%"><tspan
         sodipodi:role="line"
         id="tspan4209"
         x="29.7995"
         y="22.654764" /></text>
  </g>
  <g
     inkscape:label="Text"
     inkscape:groupmode="layer"
     id="layer1"
     transform="translate(0,-796.36216)"
     style="display:inline;opacity:1">
    <flowRoot
       xml:space="preserve"
       id="flowRoot4142"
       style="font-style:normal;font-variant:normal;font-weight:normal;font-stretch:normal;font-size:40px;line-height:125%;font-family:Spurs;-inkscape-font-specification:Spurs;letter-spacing:0px;word-spacing:0px;fill:#000000;fill-opacity:1;stroke:none;stroke-width:1px;stroke-linecap:butt;stroke-linejoin:miter;stroke-opacity:1"><flowRegion
         id="flowRegion4144"><rect
           id="rect4146"
           width="260.71429"
           height="160.71428"
           x="152.85715"
           y="483.79077"
           style="font-style:normal;font-variant:normal;font-weight:normal;font-stretch:normal;font-family:Spurs;-inkscape-font-specification:Spurs" /></flowRegion><flowPara
         id="flowPara4148" /></flowRoot>    <flowRoot
       xml:space="preserve"
       id="flowRoot4154"
       style="font-style:normal;font-weight:normal;font-size:40px;line-height:125%;font-family:sans-serif;letter-spacing:0px;word-spacing:0px;fill:#000000;fill-opacity:1;stroke:none;stroke-width:1px;stroke-linecap:butt;stroke-linejoin:miter;stroke-opacity:1"><flowRegion
         id="flowRegion4156"><rect
           id="rect4158"
           width="70.714287"
           height="61.42857"
           x="213.57143"
           y="366.64792" /></flowRegion><flowPara
         id="flowPara4160" /></flowRoot>    <text
       xml:space="preserve"
       style="font-style:normal;font-weight:normal;font-size:40px;line-height:125%;font-family:sans-serif;letter-spacing:0px;word-spacing:0px;fill:#000033;fill-opacity:1;stroke:none;stroke-width:1px;stroke-linecap:butt;stroke-linejoin:miter;stroke-opacity:1"
       x="16.142857"
       y="1011.7908"
       id="text3214"
       sodipodi:linespacing="125%"><tspan
         sodipodi:role="line"
         id="tspan3216"
         x="16.142857"
         y="1011.7908"
         style="font-style:normal;font-variant:normal;font-weight:normal;font-stretch:normal;font-size:50px;font-family:Spurs;-inkscape-font-specification:Spurs;fill:#000033;fill-opacity:1">SPURS   TV</tspan></text>
  </g>
</svg>
